<mxfile host="65bd71144e">
    <diagram id="UqSvSa5vNyuYPU-Ppron" name="Page-1">
        <mxGraphModel dx="1173" dy="806" grid="1" gridSize="10" guides="1" tooltips="1" connect="1" arrows="1" fold="1" page="1" pageScale="1" pageWidth="827" pageHeight="1169" math="0" shadow="0">
            <root>
                <mxCell id="0"/>
                <mxCell id="1" parent="0"/>
                <mxCell id="29" style="edgeStyle=none;html=1;exitX=0.5;exitY=0;exitDx=0;exitDy=0;entryX=0.5;entryY=1;entryDx=0;entryDy=0;" edge="1" parent="1" source="2" target="20">
                    <mxGeometry relative="1" as="geometry"/>
                </mxCell>
                <mxCell id="31" style="edgeStyle=none;html=1;exitX=1;exitY=0.5;exitDx=0;exitDy=0;entryX=0;entryY=0.5;entryDx=0;entryDy=0;" edge="1" parent="1" source="2" target="14">
                    <mxGeometry relative="1" as="geometry"/>
                </mxCell>
                <mxCell id="45" style="edgeStyle=none;html=1;exitX=0.5;exitY=1;exitDx=0;exitDy=0;entryX=0.5;entryY=0;entryDx=0;entryDy=0;" edge="1" parent="1" source="2" target="36">
                    <mxGeometry relative="1" as="geometry"/>
                </mxCell>
                <mxCell id="2" value="Bien" style="swimlane;" vertex="1" parent="1">
                    <mxGeometry x="10" y="240" width="200" height="200" as="geometry"/>
                </mxCell>
                <mxCell id="3" value="id_bien" style="text;html=1;align=center;verticalAlign=middle;resizable=0;points=[];autosize=1;strokeColor=none;fillColor=none;" vertex="1" parent="2">
                    <mxGeometry x="70" y="30" width="50" height="20" as="geometry"/>
                </mxCell>
                <mxCell id="8" value="surface_bien" style="text;html=1;align=center;verticalAlign=middle;resizable=0;points=[];autosize=1;strokeColor=none;fillColor=none;" vertex="1" parent="2">
                    <mxGeometry x="65" y="70" width="80" height="20" as="geometry"/>
                </mxCell>
                <mxCell id="9" value="prix_bien" style="text;html=1;align=center;verticalAlign=middle;resizable=0;points=[];autosize=1;strokeColor=none;fillColor=none;" vertex="1" parent="2">
                    <mxGeometry x="70" y="90" width="60" height="20" as="geometry"/>
                </mxCell>
                <mxCell id="7" value="nb_piece_bien" style="text;html=1;align=center;verticalAlign=middle;resizable=0;points=[];autosize=1;strokeColor=none;fillColor=none;" vertex="1" parent="2">
                    <mxGeometry x="55" y="50" width="90" height="20" as="geometry"/>
                </mxCell>
                <mxCell id="10" value="annee_construction" style="text;html=1;align=center;verticalAlign=middle;resizable=0;points=[];autosize=1;strokeColor=none;fillColor=none;" vertex="1" parent="2">
                    <mxGeometry x="40" y="110" width="120" height="20" as="geometry"/>
                </mxCell>
                <mxCell id="5" value="type de bien" style="swimlane;" vertex="1" parent="1">
                    <mxGeometry x="390" y="30" width="200" height="130" as="geometry"/>
                </mxCell>
                <mxCell id="6" value="id_type_bien" style="text;html=1;align=center;verticalAlign=middle;resizable=0;points=[];autosize=1;strokeColor=none;fillColor=none;" vertex="1" parent="5">
                    <mxGeometry x="55" y="30" width="80" height="20" as="geometry"/>
                </mxCell>
                <mxCell id="11" value="type_bien" style="text;html=1;align=center;verticalAlign=middle;resizable=0;points=[];autosize=1;strokeColor=none;fillColor=none;" vertex="1" parent="5">
                    <mxGeometry x="60" y="55" width="70" height="20" as="geometry"/>
                </mxCell>
                <mxCell id="14" value="Possede" style="swimlane;" vertex="1" parent="1">
                    <mxGeometry x="314" y="290" width="200" height="150" as="geometry"/>
                </mxCell>
                <mxCell id="26" value="balcon_bien" style="text;html=1;align=center;verticalAlign=middle;resizable=0;points=[];autosize=1;strokeColor=none;fillColor=none;" vertex="1" parent="14">
                    <mxGeometry x="56" y="90" width="80" height="20" as="geometry"/>
                </mxCell>
                <mxCell id="25" value="terrasse_bien" style="text;html=1;align=center;verticalAlign=middle;resizable=0;points=[];autosize=1;strokeColor=none;fillColor=none;" vertex="1" parent="14">
                    <mxGeometry x="51" y="70" width="90" height="20" as="geometry"/>
                </mxCell>
                <mxCell id="24" value="garage_bien" style="text;html=1;align=center;verticalAlign=middle;resizable=0;points=[];autosize=1;strokeColor=none;fillColor=none;" vertex="1" parent="14">
                    <mxGeometry x="61" y="50" width="80" height="20" as="geometry"/>
                </mxCell>
                <mxCell id="23" value="id_bien" style="text;html=1;align=center;verticalAlign=middle;resizable=0;points=[];autosize=1;strokeColor=none;fillColor=none;" vertex="1" parent="14">
                    <mxGeometry x="71" y="30" width="50" height="20" as="geometry"/>
                </mxCell>
                <mxCell id="27" value="jardin_bien" style="text;html=1;align=center;verticalAlign=middle;resizable=0;points=[];autosize=1;strokeColor=none;fillColor=none;" vertex="1" parent="14">
                    <mxGeometry x="65" y="110" width="70" height="20" as="geometry"/>
                </mxCell>
                <mxCell id="30" style="edgeStyle=none;html=1;exitX=1;exitY=0.5;exitDx=0;exitDy=0;entryX=0;entryY=0.5;entryDx=0;entryDy=0;" edge="1" parent="1" source="20" target="5">
                    <mxGeometry relative="1" as="geometry"/>
                </mxCell>
                <mxCell id="20" value="Correspondre" style="swimlane;" vertex="1" parent="1">
                    <mxGeometry x="100" y="50" width="200" height="90" as="geometry"/>
                </mxCell>
                <mxCell id="15" value="id_bien" style="text;html=1;align=center;verticalAlign=middle;resizable=0;points=[];autosize=1;strokeColor=none;fillColor=none;" vertex="1" parent="20">
                    <mxGeometry x="70" y="30" width="50" height="20" as="geometry"/>
                </mxCell>
                <mxCell id="21" value="id_type_bien" style="text;html=1;align=center;verticalAlign=middle;resizable=0;points=[];autosize=1;strokeColor=none;fillColor=none;" vertex="1" parent="20">
                    <mxGeometry x="55" y="50" width="80" height="20" as="geometry"/>
                </mxCell>
                <mxCell id="36" value="Adresse" style="swimlane;" vertex="1" parent="1">
                    <mxGeometry x="225" y="540" width="200" height="160" as="geometry"/>
                </mxCell>
                <mxCell id="41" value="nom_ville" style="text;html=1;align=center;verticalAlign=middle;resizable=0;points=[];autosize=1;strokeColor=none;fillColor=none;" vertex="1" parent="36">
                    <mxGeometry x="70" y="110" width="70" height="20" as="geometry"/>
                </mxCell>
                <mxCell id="40" value="code_postal" style="text;html=1;align=center;verticalAlign=middle;resizable=0;points=[];autosize=1;strokeColor=none;fillColor=none;" vertex="1" parent="36">
                    <mxGeometry x="65" y="90" width="80" height="20" as="geometry"/>
                </mxCell>
                <mxCell id="39" value="nom_rue" style="text;html=1;align=center;verticalAlign=middle;resizable=0;points=[];autosize=1;strokeColor=none;fillColor=none;" vertex="1" parent="36">
                    <mxGeometry x="70" y="70" width="60" height="20" as="geometry"/>
                </mxCell>
                <mxCell id="37" value="id_adresse" style="text;html=1;align=center;verticalAlign=middle;resizable=0;points=[];autosize=1;strokeColor=none;fillColor=none;" vertex="1" parent="36">
                    <mxGeometry x="55" y="35" width="70" height="20" as="geometry"/>
                </mxCell>
                <mxCell id="38" value="num_adresse" style="text;html=1;align=center;verticalAlign=middle;resizable=0;points=[];autosize=1;strokeColor=none;fillColor=none;" vertex="1" parent="36">
                    <mxGeometry x="40" y="50" width="90" height="20" as="geometry"/>
                </mxCell>
                <mxCell id="46" value="Situer" style="ellipse;whiteSpace=wrap;html=1;" vertex="1" parent="1">
                    <mxGeometry x="140" y="460" width="100" height="60" as="geometry"/>
                </mxCell>
                <mxCell id="47" value="1, 1" style="text;html=1;align=center;verticalAlign=middle;resizable=0;points=[];autosize=1;strokeColor=none;fillColor=none;" vertex="1" parent="1">
                    <mxGeometry x="314" y="510" width="40" height="20" as="geometry"/>
                </mxCell>
                <mxCell id="48" value="1, 1" style="text;html=1;align=center;verticalAlign=middle;resizable=0;points=[];autosize=1;strokeColor=none;fillColor=none;" vertex="1" parent="1">
                    <mxGeometry x="210" y="440" width="40" height="20" as="geometry"/>
                </mxCell>
                <mxCell id="49" value="1, *" style="text;html=1;align=center;verticalAlign=middle;resizable=0;points=[];autosize=1;strokeColor=none;fillColor=none;" vertex="1" parent="1">
                    <mxGeometry x="285" y="320" width="30" height="20" as="geometry"/>
                </mxCell>
                <mxCell id="50" value="0, *" style="text;html=1;align=center;verticalAlign=middle;resizable=0;points=[];autosize=1;strokeColor=none;fillColor=none;" vertex="1" parent="1">
                    <mxGeometry x="215" y="310" width="30" height="20" as="geometry"/>
                </mxCell>
                <mxCell id="51" value="1, 1" style="text;html=1;align=center;verticalAlign=middle;resizable=0;points=[];autosize=1;strokeColor=none;fillColor=none;" vertex="1" parent="1">
                    <mxGeometry x="160" y="210" width="40" height="20" as="geometry"/>
                </mxCell>
                <mxCell id="52" value="0, *" style="text;html=1;align=center;verticalAlign=middle;resizable=0;points=[];autosize=1;strokeColor=none;fillColor=none;" vertex="1" parent="1">
                    <mxGeometry x="345" y="110" width="30" height="20" as="geometry"/>
                </mxCell>
            </root>
        </mxGraphModel>
    </diagram>
</mxfile>